<?xml version="1.0" encoding="iso-8859-1"?>
<!-- Generator: Adobe Illustrator 19.0.0, SVG Export Plug-In . SVG Version: 6.00 Build 0)  -->
<svg version="1.1" id="Capa_1" xmlns="http://www.w3.org/2000/svg" xmlns:xlink="http://www.w3.org/1999/xlink" x="0px" y="0px"
	 viewBox="0 0 512 512" style="enable-background:new 0 0 512 512;" xml:space="preserve">
<g>
	<g>
		<path d="M506.935,458.895v-5.111c0-14.272-6.422-32.697-37.015-39.425l-65.206-14.336c-4.05-0.885-8.039,1.669-8.929,5.71
			c-0.889,4.042,1.668,8.039,5.71,8.929l65.206,14.336c10.837,2.383,25.245,7.545,25.245,24.786v4.548H257.505l-50.962-15.342
			c-3.96-1.192-8.141,1.053-9.336,5.016c-1.193,3.963,1.053,8.142,5.016,9.336l52.019,15.661c0.7,0.211,1.429,0.318,2.16,0.318
			h238.966c-3.128,9.247-11.879,15.921-22.157,15.921H257.177l-88.384-25.92c-8.379-2.511-17.108,3.972-17.164,12.712l-0.081,18.493
			c-0.005,0.749-0.615,1.359-1.359,1.359h-15.039v-0.925c0-9.644-14.988-9.66-14.988,0v0.925h-19.551v-0.925
			c0-9.644-14.988-9.66-14.988,0v0.925h-18.67v-0.925c0-9.644-14.988-9.66-14.988,0v0.905c-20.461-0.429-36.979-17.214-36.979-37.8
			v-13.449h144.971l8.639,2.601c3.963,1.193,8.143-1.052,9.336-5.016c1.193-3.963-1.053-8.143-5.016-9.336l-9.696-2.919
			c-0.7-0.211-1.429-0.318-2.16-0.318h-60.451v-9.957c0-42.022-31.792-76.736-72.564-81.354c1.478-4.11,3.187-8.133,5.126-12.042
			c8.132-16.4,12.723-34.594,13.395-52.896c6.674,1.962,12.388,6.534,15.743,12.891l22.445,42.532
			c20.252,38.378,78.28,34.436,93.195-6.283l10.098-27.565c1.424-3.886-0.573-8.19-4.458-9.614c-3.89-1.424-8.191,0.573-9.614,4.459
			l-10.098,27.565c-10.548,28.794-51.565,31.544-65.867,4.442l-22.445-42.532c-5.957-11.29-16.646-18.993-28.901-21.251v-66.9
			c0-9.644-14.988-9.66-14.988,0v77.576c0,17.572-4.126,35.179-11.929,50.917c-8.828,17.797-13.493,37.707-13.493,57.576v53.948
			C2.53,433.209,0,437.18,0,441.734v16.332c0,29.117,23.669,52.806,52.761,52.806h97.428c8.957,0,16.29-7.29,16.347-16.266
			l0.071-16.307l87.385,25.626c0.685,0.201,1.395,0.303,2.108,0.303h4.554c0.969,8.566,13.915,8.577,14.885,0h21.904
			c0.969,8.566,13.915,8.577,14.885,0h25.727c0.969,8.566,13.915,8.577,14.885,0h22.613c0.968,8.566,13.915,8.577,14.884,0h22.613
			c0.968,8.566,13.915,8.577,14.884,0h23.644c0.968,8.566,13.915,8.577,14.884,0h6.748c11.64,0,22.78-5.434,30.018-14.53
			C508.007,483.691,518.104,463.487,506.935,458.895z M21.243,377.195c0-8.127,0.894-16.26,2.615-24.214
			c34.491,2.602,61.766,31.508,61.766,66.692v9.957h-64.38V377.195z"/>
	</g>
</g>
<g>
	<g>
		<path d="M372.226,391.147c-31.746-11.921-58.819-32.987-78.289-60.919c-19.655-28.197-30.043-61.291-30.043-95.705V61.966
			c5.817-0.785,10.321-5.77,10.321-11.799v-37.12c0-6.573-5.348-11.919-11.919-11.919H33.599c-6.572,0-11.919,5.347-11.919,11.919
			v37.12c0,5.916,4.338,10.826,9.997,11.749v96.629c0,9.644,14.988,9.66,14.988,0V62.086h39.428v29.877
			c0,24.381,20.41,44.79,44.79,44.79s44.79-20.409,44.79-44.79V62.086h73.234v135.32h-12.338c-17.196,0-32.726,10.856-38.644,27.014
			l-11.031,30.113c-1.424,3.886,0.573,8.19,4.458,9.614c3.791,1.387,8.229-0.676,9.614-4.459l11.031-30.113
			c3.765-10.277,13.639-17.181,24.572-17.181h12.338v22.129c0,75.096,47.742,144.252,118.051,170.655
			c3.781,1.419,8.234-0.61,9.65-4.381C378.062,396.922,376.101,392.602,372.226,391.147z M160.685,91.963
			c0,16.206-13.597,29.803-29.803,29.803s-29.803-13.596-29.803-29.803V62.086h59.605V91.963z M259.227,47.099h-2.827h-88.222
			H93.586H39.17h-2.503V16.116h222.56V47.099z"/>
	</g>
</g>
<g>
	<g>
		<path d="M130.109,70.873c-26.939,0-27.33,42.105,0,42.105C157.397,112.978,157.07,70.873,130.109,70.873z M130.109,97.99
			c-7.716,0.076-7.837-12.129,0-12.129C137.868,85.861,137.863,97.914,130.109,97.99z"/>
	</g>
</g>
<g>
</g>
<g>
</g>
<g>
</g>
<g>
</g>
<g>
</g>
<g>
</g>
<g>
</g>
<g>
</g>
<g>
</g>
<g>
</g>
<g>
</g>
<g>
</g>
<g>
</g>
<g>
</g>
<g>
</g>
</svg>
