<svg id="Layer_1" height="512" viewBox="0 0 512 512" width="512" xmlns="http://www.w3.org/2000/svg" data-name="Layer 1"><path d="m410.794 80.85h67.152a6 6 0 0 0 0-12h-67.152a6 6 0 0 0 0 12z"/><path d="m379.6 80.85h8.944a6 6 0 0 0 0-12h-8.944a6 6 0 0 0 0 12z"/><path d="m383.96 437.15a6 6 0 0 0 6 6h103.809a6 6 0 0 0 0-12h-103.809a6 6 0 0 0 -6 6z"/><path d="m362.659 443.15a6 6 0 0 0 0-12h-127a6 6 0 0 0 0 12z"/><path d="m477.946 394.769a6 6 0 0 0 0-12h-21.916a6 6 0 0 0 0 12z"/><path d="m428.416 382.769h-116.869a6 6 0 0 0 0 12h116.869a6 6 0 0 0 0-12z"/><path d="m501 331.565h-93.22a6 6 0 0 0 0 12h93.22a6 6 0 0 0 0-12z"/><path d="m8.578 385.706c1.194 3.584 7.241 18.927 26.749 31.872 19.3 12.809 45 19.236 76.735 19.234a302.813 302.813 0 0 0 46.752-3.953c61.762-9.7 102.826-40.846 146.363-77.522 33.86-28.523 52.255-34.747 71.73-41.335 17.528-5.93 35.653-12.062 64.667-34.419 21.858-16.843 32.352-35.182 31.193-54.506-1.955-32.585-36.692-55.807-42.966-59.744-7.3-8.793-67.625-79.795-112.948-79.795-.484 0-.97.008-1.451.024-12.535.428-22.8 6.167-30.517 17.058-26.859 37.916-51.481 46.994-62.506 49.148a24.843 24.843 0 0 0 -18.36-22.962 26.289 26.289 0 0 0 -21.9 3.468 24.524 24.524 0 0 0 -10.773 17.653c-8.632 79.656-44.842 144.405-71.942 152.7-60.514 18.508-82.399 39.729-90.104 54.273-5.7 10.766-4.261 18.681-3.759 20.647a30.04 30.04 0 0 0 3.037 8.159zm340.157-253.318a73.9 73.9 0 0 0 7.3-19.521 218.713 218.713 0 0 1 19.392 14.668c-2.227 21.281-18.438 30.6-28.144 34.315.339-14.711 1.172-25.979 1.452-29.462zm37.18 4.381a409.6 409.6 0 0 1 34.885 36.51c2.536 4.932 21.784 47.48-46.019 85.967-3.342 1.9-6.552 3.722-9.657 5.492-9.847-9.67-16.061-34.752-17.606-71.534-.267-6.351-.375-12.612-.379-18.578 13.524-3.994 32.884-15.342 38.776-37.857zm-164.645 27.354c12.225-1.506 41.813-9.966 73.407-54.567 5.508-7.776 12.42-11.7 21.13-12 8.254-.294 18.115 2.664 29.274 8.687-4.608 29.4-27.44 50.55-67.957 62.9-23.436 7.144-46.658 9.231-58.014 9.84.907-5.389 1.616-10.393 2.16-14.86zm-4.438 27c10.556-.406 36.553-2.23 63.54-10.42 23.732-7.2 42.279-17.607 55.286-30.83-.5 11.641-.821 27.278-.135 43.72 1.591 38.123 7.958 64.02 18.954 77.24-6.329 3.637-12.162 7.021-17.62 10.238a70.708 70.708 0 0 0 -18.6-15.344c-13.137-7.339-34.143-12.589-59.611 4.087-58.414 38.247-91.378 40.9-107.1 38.237a61.517 61.517 0 0 0 10.592-7.82c32.352-29.804 47.556-74.68 54.694-109.112zm-33.554-39.9a12.38 12.38 0 0 1 5.557-9 14.179 14.179 0 0 1 7.944-2.418 14.643 14.643 0 0 1 3.979.554c6.08 1.717 10.111 7.211 9.583 13.064-.306 3.391-.73 7.391-1.311 11.862a40.014 40.014 0 0 1 -27.247-2.343c.561-3.906 1.071-7.813 1.495-11.722zm-3.47 23.9a51.775 51.775 0 0 0 18.76 3.511 53.134 53.134 0 0 0 8.562-.7c-1.368 8.021-3.2 16.914-5.653 26.232-10.625 3.853-21.751-.641-27.256-3.539 2.179-8.37 4.034-16.902 5.587-25.509zm-8.891 37.287a51.737 51.737 0 0 0 21.768 5.289 39.168 39.168 0 0 0 4.957-.325 225.16 225.16 0 0 1 -10.962 28.048c-13.352 1.164-21.331-3.644-24.928-6.655 3.387-8.467 6.448-17.291 9.165-26.362zm-17.764 45.69c1.294-2.613 2.541-5.294 3.768-8a44.188 44.188 0 0 0 23.451 7.461 146.243 146.243 0 0 1 -19.145 26.6c-11.4 1.508-16.9-3.069-19.246-6.148a209.723 209.723 0 0 0 11.172-19.913zm-18.182 30a29.241 29.241 0 0 0 13.883 7.432 52.8 52.8 0 0 1 -29.659 9.376 98.6 98.6 0 0 0 15.776-16.808zm-33.733 26.514a66.583 66.583 0 0 0 33.566.268c4.043 2.42 12.355 6 26.154 6q1.293 0 2.649-.043c27.222-.875 61.41-14.667 101.615-40.991 30.377-19.889 52.484-2.011 61.174 7.456-13.031 7.879-24.038 14.978-35.084 22.738a6 6 0 0 0 -1.085 8.829l.008.009a6 6 0 0 0 8 .988c22.048-15.483 43.932-28.311 82.475-50.188 29.754-16.889 47.983-36.908 54.181-59.5a62.54 62.54 0 0 0 1.759-24.68c10.461 9.14 23.156 23.556 24.146 40.327.891 15.1-8.039 29.99-26.541 44.247-27.43 21.137-43.828 26.685-61.189 32.558-19.675 6.656-40.019 13.538-75.615 43.524-42.136 35.5-81.791 65.628-140.494 74.845-54.731 8.594-87.619.954-106.731-8.65 14.633 4.033 31.643 6.125 49.5 6.125 42.718 0 90.235-11.933 121.336-37.693 17.584-14.563 31.61-26.087 43.835-35.8a6 6 0 0 0 -7.472-9.4c-6.3 5.009-13.088 10.5-20.575 16.628-13.211-5.14-61.351-20.194-126.561 2.393-32.369 11.213-54.515 9.244-67.394 5.616a55.727 55.727 0 0 1 -16-7.179c10.381-11.123 31.527-25.136 74.343-38.427zm-81.4 48.18c7.426 5.094 22.046 12.338 45.188 12.338 13.44 0 29.757-2.447 49.192-9.178 52.7-18.256 94.006-10.112 111.7-4.746q-5.952 4.906-12.5 10.336c-20.363 16.866-50.217 28.6-84.061 33.024-30.218 3.956-61.488 1.644-83.647-6.183-16.454-5.813-26.552-14.127-28.434-23.411a2.54 2.54 0 0 0 -.118-.5c-.127-.62-.753-5.019 2.677-11.68z"/><path d="m294.388 251.881a32.711 32.711 0 1 0 -32.711-32.711 32.747 32.747 0 0 0 32.711 32.711zm0-53.422a20.711 20.711 0 1 1 -20.711 20.711 20.735 20.735 0 0 1 20.711-20.711z"/></svg>